<?xml version="1.0" encoding="UTF-8" standalone="no"?>
<!-- Created with Inkscape (http://www.inkscape.org/) -->

<svg
   xmlns:dc="http://purl.org/dc/elements/1.1/"
   xmlns:cc="http://creativecommons.org/ns#"
   xmlns:rdf="http://www.w3.org/1999/02/22-rdf-syntax-ns#"
   xmlns:svg="http://www.w3.org/2000/svg"
   xmlns="http://www.w3.org/2000/svg"
   xmlns:sodipodi="http://sodipodi.sourceforge.net/DTD/sodipodi-0.dtd"
   xmlns:inkscape="http://www.inkscape.org/namespaces/inkscape"
   width="384"
   height="291"
   id="svg2"
   version="1.1"
   inkscape:version="0.48.4 r9939"
   sodipodi:docname="gijineko.svg"
   inkscape:export-filename="/run/user/1000/gvfs/smb-share:server=192.168.11.1,share=disk1_pt1/sagittarius/共有/ぎじねこ/gijineko.png"
   inkscape:export-xdpi="90"
   inkscape:export-ydpi="90">
  <defs
     id="defs4">
    <clipPath
       clipPathUnits="userSpaceOnUse"
       id="clipPath5789">
      <rect
         style="fill:none;stroke:#ff0000;stroke-opacity:1"
         id="rect5791"
         width="1265.7142"
         height="1274.2858"
         x="-531.42859"
         y="43.790752" />
    </clipPath>
  </defs>
  <sodipodi:namedview
     id="base"
     pagecolor="#ffffff"
     bordercolor="#666666"
     borderopacity="1.0"
     inkscape:pageopacity="0.0"
     inkscape:pageshadow="2"
     inkscape:zoom="3.5810212"
     inkscape:cx="172.94831"
     inkscape:cy="233.18602"
     inkscape:document-units="px"
     inkscape:current-layer="layer1"
     showgrid="false"
     inkscape:window-width="1920"
     inkscape:window-height="1148"
     inkscape:window-x="0"
     inkscape:window-y="0"
     inkscape:window-maximized="1" />
  <metadata
     id="metadata7">
    <rdf:RDF>
      <cc:Work
         rdf:about="">
        <dc:format>image/svg+xml</dc:format>
        <dc:type
           rdf:resource="http://purl.org/dc/dcmitype/StillImage" />
        <dc:title />
      </cc:Work>
    </rdf:RDF>
  </metadata>
  <g
     inkscape:groupmode="layer"
     id="layer2"
     inkscape:label="Tシャツ"
     transform="translate(0,-761.36218)" />
  <g
     inkscape:label="デザイン"
     inkscape:groupmode="layer"
     id="layer1"
     transform="translate(0,-761.36218)">
    <path
       id="path4212"
       style="fill:#000000;fill-opacity:1;stroke:none"
       d="m 238.8832,942.49565 c -2.27338,-2.4359 4.83976,-7.60787 1.1218,-7.76965 -6.81278,0.99243 -13.3521,3.87846 -20.35884,3.34447 -5.75489,0.2606 -11.53201,-1.44861 -15.99128,-5.14395 -4.84177,-3.57397 -9.09263,-8.34967 -10.44012,-14.3694 -1.61801,-6.27179 -2.86567,-13.07507 -1.09246,-19.43915 2.66956,-6.53457 9.32253,-9.99059 14.40968,-14.41262 2.76669,-2.17317 5.34427,-4.71984 6.6084,-8.04891 3.27701,-2.06921 7.46894,-1.67614 11.18481,-2.35991 14.20887,-1.48967 28.06362,-5.40332 42.324,-6.48838 4.07521,0.37958 5.14381,5.75404 1.15125,7.3142 -3.7423,1.83198 -0.30476,6.07991 -0.47348,9.13804 1.57866,8.20417 1.66344,16.66855 0.8876,24.96653 -0.74065,6.00025 -6.09186,9.79595 -10.2259,13.59338 -3.80347,2.2236 -5.24633,6.18337 -6.38024,10.16306 -1.92352,3.44651 -5.02867,5.60764 -7.39276,8.73946 -1.40052,1.06012 -3.76387,2.04009 -5.33246,0.77283 z m -15.26341,-11.65532 c 1.50948,-0.81632 6.0714,0.65326 5.60774,-1.79249 -1.31144,-5.72552 -5.64958,-10.12368 -7.84992,-15.49638 -3.16604,-6.56215 -5.74366,-13.41381 -7.54993,-20.47403 -2.78887,-3.20414 -7.35338,2.51932 -10.17146,3.96186 -4.18581,2.78857 -4.0888,8.20837 -3.92422,12.67459 0.0984,4.47312 1.12905,9.11707 4.31534,12.43959 2.55114,3.9194 6.25419,7.59182 10.87235,8.80556 2.88941,0.31723 5.81365,0.14839 8.7001,-0.1187 z m 33.9676,-16.88813 c 3.83454,-3.3443 4.79271,-8.85729 4.51068,-13.72828 0.29654,-5.60693 -0.81984,-11.17753 -3.12755,-16.28785 -1.16858,-3.2707 -1.10551,-8.54885 -6.09706,-7.13489 -4.1709,0.42424 -8.4058,0.91579 -12.40701,2.18799 1.56711,2.79473 4.26495,4.98887 5.71663,7.95663 4.28468,7.38976 6.54477,15.83991 6.91286,24.35392 -0.3284,2.81285 2.11916,4.32378 4.49145,2.65248 z m -112.86081,36.40633 c -3.80422,-1.87528 -7.82666,-3.45513 -12.12935,-3.57816 -8.09818,-1.10069 -16.28259,-3.72072 -22.74062,-8.86046 -7.06654,-6.8525 -9.63251,-17.16982 -9.15519,-26.76638 0.28073,-4.13629 -0.13129,-9.25293 3.66841,-11.96031 6.0184,-4.83879 13.07259,-8.28113 20.60115,-10.00525 7.56065,-1.89756 15.2019,-4.03731 23.07912,-3.66391 8.04706,0.17369 16.72268,-0.59334 23.99617,3.54633 4.37229,2.49451 9.1546,4.914 12.18508,9.06758 3.15285,3.55421 -1.26499,6.58827 -4.72419,5.82368 -2.83665,-3.6049 -7.25718,-5.58092 -11.13302,-7.90818 -5.43274,-3.29637 -11.86582,-3.46807 -18.02304,-3.65245 1.62422,9.29129 2.06937,18.99684 1.77916,28.49554 -0.50222,4.18197 -1.6215,8.32357 -2.47721,12.43457 -1.78405,1.73162 -4.73387,4.5218 -4.85892,6.55332 8.49404,-0.79966 17.61434,-3.74266 22.82994,-10.90583 1.52137,-3.00345 2.23063,-6.38014 3.83631,-9.37865 1.71075,-3.29988 2.35933,-6.96195 3.44221,-10.46889 1.35216,-3.13487 5.04026,-6.04026 7.1842,-1.85122 3.37115,2.56408 2.47941,7.1334 -0.51063,9.52795 -4.51091,6.10492 -4.79559,14.47701 -10.36441,19.95603 -3.68155,4.58084 -9.5836,6.20696 -14.71729,8.58863 -3.5776,1.2315 -7.08382,2.52426 -9.99549,4.98436 -0.56402,0.22664 -1.20119,0.2138 -1.77239,0.0217 z m -12.22621,-10.49817 c 2.67918,-3.39148 -2.00025,-7.64898 -2.60306,-11.27521 -3.79199,-9.56406 -3.03809,-20.0116 -4.09466,-30.04522 -1.83328,-3.71758 -5.24611,1.4457 -8.07358,1.64797 -6.38515,3.98699 -8.91401,11.96377 -8.62999,19.17557 -0.16536,4.7766 0.67768,9.88054 4.23026,13.37105 4.44767,5.09548 11.41482,7.26951 17.95323,7.73181 0.45392,-0.087 0.8432,-0.35274 1.2178,-0.60597 z m 46.4866,111.34164 c -22.47536,-3.0224 -45.54481,-10.3004 -62.02832,-26.5825 -15.82297,-0.874 -30.903772,6.6153 -46.040922,10.4997 -11.64345,2.636 -21.05853,12.4826 -31.80118,15.3414 13.12634,-20.0529 39.55503,-21.59 60.34859,-28.6368 22.335762,-0.9441 -2.77336,-20.3254 -7.74218,-28.78446 -23.14897,1.91966 -45.94154,7.18646 -68.37731,13.01296 -8.13606,9.3574 -14.3452892,-5.418 -0.4862,-5.3038 21.84237,-6.16367 44.49084,-8.91874 66.41445,-14.55171 1.40484,-8.56396 -6.56039,-10.60841 -13.69733,-9.10649 -21.76727,0.60693 -43.84779,0.54158 -65.25317,4.70138 2.38961,11.34893 -20.2852492,-8.19247 -1.5461692,-6.55495 24.0814192,-3.28889 48.5023492,-2.8983 72.6379892,-5.28661 -4.38436,-14.79357 -8.77803,-31.36449 -11.14459,-47.36956 -6.43976,-34.13672 -14.29842,-70.63441 -0.73998,-104.14296 5.67842,-19.40486 16.3419,-38.32413 33.245412,-49.95937 12.87656,8.66198 21.10534,25.68115 29.87351,39.09353 8.47083,11.96383 8.57664,36.65099 22.28263,40.16146 17.96985,-6.54171 37.91883,-2.63087 55.77457,-8.71733 12.215,-10.53679 13.13324,-28.52176 20.42213,-42.28503 7.08711,-9.55832 9.90483,-33.60921 22.23077,-32.23433 7.90397,21.09681 14.8398,42.90696 25.16844,63.14596 5.61067,19.86576 20.80205,35.61334 24.49378,56.25963 5.93947,22.35087 10.98562,45.04841 12.16736,68.21036 17.29496,0.16624 35.99879,-4.77899 52.40081,1.61392 -5.50437,5.42196 -22.4127,-4.88228 -32.71836,0.64134 -14.84438,-1.88366 -23.75218,4.71119 -20.09156,19.81278 -1.88881,10.57389 15.3759,1.86772 21.26085,5.59148 10.19825,0.69445 15.74468,2.77383 1.85841,2.36519 -15.36167,-1.9236 -29.50915,0.56043 -33.42766,17.7305 3.56627,12.24491 28.86703,5.65311 40.40333,11.46491 11.83329,4.1844 28.94786,3.255 37.88027,8.66 -23.88365,0.8927 -46.72353,-9.2797 -70.65573,-9.6154 -13.37547,-6.0819 -19.10306,8.2212 -29.14499,13.4608 -26.13774,17.7866 -57.15757,28.7379 -89.03765,27.5505 -4.97576,0.01 -9.95993,0.093 -14.93,-0.1865 z m 28.35192,-5.7851 c 30.73683,-1.6766 58.69548,-17.1335 82.57529,-35.572 -12.09732,-2.0062 -24.46417,-2.1529 -36.69759,-3.0215 -5.54266,13.7262 -18.11628,28.4696 -34.06166,18.9937 -11.14477,-1.6601 -19.98354,-27.60298 -24.28247,-7.95 -3.78283,11.3447 -21.78504,23.0384 -24.7208,25.5598 12.08584,2.8375 24.85462,2.6657 37.18723,1.99 z m -54.69061,-7.3119 c -8.26402,-7.4309 -13.80591,-27.7942 -27.10139,-15.6453 5.15483,7.6772 22.60698,16.8541 27.10139,15.6453 z m 16.75859,-3.7055 c 17.40365,-7.3962 27.42,-29.6477 19.95584,-47.43096 -7.24441,-8.75642 -23.4526,-29.37605 -12.29827,-38.32537 13.67952,0.51337 42.91655,-1.70851 30.8671,20.47598 -6.18162,11.2093 -16.11363,19.85426 -3.99376,32.07295 4.93831,11.576 21.59718,28.8633 33.63424,16.3996 8.71068,-7.5084 8.18014,-14.9008 -4.31461,-14.6311 -3.55114,-9.77464 24.84507,0.3522 32.2855,-0.5459 16.25791,3.7922 34.85505,4.3315 37.81372,-16.46952 -9.99449,-6.0668 -30.48773,1.32146 -44.44627,0.012 -10.61239,-2.49495 -30.83135,7.26715 -35.72931,-2.80853 17.42273,-3.90214 35.94773,-1.79423 53.81731,-3.18045 13.27101,-1.82623 36.63842,5.44091 30.87181,-15.77987 -2.55126,-13.11274 -26.07667,1.85738 -36.00746,1.07331 -16.19943,2.14983 -32.05302,12.16528 -47.64246,12.17288 5.20077,-12.60114 27.84992,-11.20017 40.76545,-16.21711 14.06214,-3.41674 28.47331,-4.97736 42.63816,-7.8746 -0.54433,-30.97121 -7.13724,-62.18804 -20.02494,-90.38343 -9.10394,-14.01916 -17.76691,-27.20164 -18.51672,-42.76124 -6.53938,-13.9603 -11.34477,-28.68373 -17.6843,-42.69862 -9.88876,6.91442 -15.02339,25.69022 -20.51567,37.98547 -4.83479,15.6618 -7.71562,37.27608 -29.50443,33.56424 -17.53523,1.78295 -36.79556,0.1567 -51.93226,10.85604 -15.28632,-4.75614 -10.97238,-31.26955 -19.91436,-44.22735 -7.68749,-11.07224 -14.98364,-32.02659 -28.44449,-33.37685 -19.054402,15.25651 -25.331762,40.04834 -30.852372,62.64849 -3.83119,35.51528 5.13389,70.61516 12.02175,105.19626 3.66506,6.5625 3.52868,22.05259 13.90856,19.94178 18.607942,0.59232 37.515872,-0.79714 55.869992,1.84868 13.86296,12.68815 -22.32263,2.22646 -29.75184,4.76118 -7.6257,0.44149 -37.394172,-4.01568 -21.82529,8.47925 22.38654,-1.79189 46.0578,-4.36554 67.46262,3.97713 12.2657,11.20016 -15.5076,-0.17232 -20.83616,1.21454 -13.88927,0.99659 -36.30637,-4.85217 -45.18093,3.68708 5.64724,7.27994 10.95645,25.20294 22.524,21.41064 15.93728,-2.6248 31.36639,-8.1848 47.42441,-9.762 12.54548,6.2752 -14.60338,7.2509 -20.25463,9.7086 -22.6198,-0.1107 9.94862,25.7791 17.81007,18.9868 z m 24.96693,-57.02847 c 14.43668,-10.1155 2.81527,-26.81511 -12.55793,-21.77382 2.12707,6.61334 2.7362,23.61719 12.55793,21.77382 z m 2.63441,-3.43241 c 3.113,-4.63042 4.39177,-10.04799 3.10501,-13.15449 -0.86355,-2.08479 -1.97797,-2.71297 -6.45254,-3.63718 -2.97479,-0.61443 -6.7002,-1.11715 -8.27868,-1.11715 l -2.86998,0 0.75722,4.05317 c 1.03513,5.54079 4.17908,13.58932 6.16588,15.78472 2.28579,2.52577 5.05184,1.82118 7.57309,-1.92907 z m 63.65021,-66.00714 c 2.0428,-6.15028 1.20019,-16.04194 -1.95322,-22.92992 -1.25336,-2.73769 -2.04056,-5.59855 -1.74933,-6.35747 0.65936,-1.71826 -3.89358,-1.86219 -10.96099,-0.3465 l -4.81836,1.03335 2.27455,2.48297 c 5.32141,5.80899 10.08291,18.88246 10.08291,27.68424 0,4.23852 0.83676,5.27928 3.33084,4.1429 1.48845,-0.67818 2.75618,-2.58619 3.7936,-5.70957 z m -31.87818,21.59195 c 0.45567,-0.45568 -2.23925,-6.19243 -3.84644,-8.18798 -1.0987,-1.3642 -4.75749,-8.35799 -6.86768,-13.1276 -1.66573,-3.76501 -4.8526,-13.88102 -4.8526,-15.40349 0,-1.77324 -8.6889,3.44972 -11.33479,6.81342 -2.8544,3.62878 -1.94582,17.51353 1.32911,20.31114 0.60371,0.51573 1.65703,2.02449 2.34071,3.3528 0.68368,1.32831 3.00445,3.58023 5.15727,5.00426 3.61855,2.39358 4.4346,2.55253 10.80329,2.10434 3.78898,-0.26666 7.06098,-0.65676 7.27113,-0.86689 z m 9.11208,12.80541 c -0.31892,-0.83107 0.15958,-2.76279 1.06332,-4.29271 l 1.64317,-2.78166 -3.25015,0.51653 c -1.78759,0.28409 -4.309,0.9191 -5.60314,1.41113 -5.05275,1.92106 -15.04463,2.22168 -20.55292,0.61838 -5.40844,-1.57425 -12.74107,-7.38413 -16.16182,-12.80554 -2.19814,-3.48375 -4.40469,-12.63636 -4.49834,-18.65882 -0.13372,-8.59865 1.82617,-11.77384 11.83639,-19.17593 6.38083,-4.71832 8.94674,-7.20447 9.30996,-9.02056 0.60738,-3.03693 1.85114,-3.44077 14.19348,-4.60858 5.15727,-0.48798 11.74544,-1.5151 14.64036,-2.28248 2.89494,-0.76738 8.80235,-1.88685 13.12759,-2.48771 4.32526,-0.60085 9.25428,-1.30254 10.9534,-1.5593 2.14488,-0.32412 3.64983,0.0404 4.92284,1.19249 2.50584,2.26776 2.30002,4.6232 -0.5878,6.72682 l -2.42135,1.76384 1.48366,7.18285 c 1.71969,8.32554 1.93577,22.00318 0.43321,27.42216 -1.00541,3.62604 -5.02371,8.11682 -12.01997,13.43334 -1.57862,1.19961 -2.87023,2.97861 -2.87023,3.95334 0,2.67747 -2.99286,8.39967 -4.39325,8.39967 -0.67808,0 -1.23286,0.44113 -1.23286,0.9803 0,0.53917 -1.03572,2.01602 -2.30159,3.2819 -2.61988,2.61988 -6.84579,3.05296 -7.71396,0.79054 z m -82.81529,-5.14432 c 6.76833,-2.40322 13.12759,-7.91975 13.12759,-11.38793 0,-0.67703 1.18879,-3.54009 2.64175,-6.36237 1.45296,-2.82228 2.63444,-6.20548 2.62552,-7.51822 -0.0184,-2.70324 1.86555,-5.73567 4.44621,-7.15677 1.52894,-0.84194 0.95282,-1.47588 -4.68843,-5.15881 -7.0896,-4.62851 -12.09863,-6.39553 -18.1296,-6.39553 l -3.97896,0 0.54635,3.51632 c 1.34263,8.6411 1.78818,26.46027 0.69457,27.77799 -0.61069,0.73584 -1.19905,3.23464 -1.30746,5.55288 -0.10842,2.31826 -0.48133,4.04316 -0.82868,3.83312 -0.34737,-0.21004 -1.5424,0.89725 -2.65564,2.46066 l -2.02408,2.84255 3.12448,-0.41929 c 1.71847,-0.23061 4.60133,-0.94368 6.40638,-1.5846 z m -22.63257,2.06598 c 1.03661,-0.65675 0.80389,-1.75466 -1.23038,-5.8048 -3.53573,-7.0395 -5.2793,-15.51961 -5.47508,-26.62894 -0.1523,-8.64228 -0.32935,-9.52888 -1.82481,-9.13781 -0.91088,0.2382 -1.65615,0.80584 -1.65615,1.26141 0,0.45558 -0.67328,0.82832 -1.4962,0.82832 -2.74125,0 -6.99443,3.8812 -9.09065,8.29558 -2.71539,5.71829 -2.7887,17.10222 -0.13716,21.29904 3.56179,5.63755 8.6379,8.76481 16.35013,10.07286 1.28931,0.21868 2.55519,0.4486 2.81305,0.51094 0.25786,0.0624 1.04412,-0.25114 1.74725,-0.6966 z m 8.58192,10.16169 c -1.797,-1.00186 -4.75071,-1.83659 -6.5638,-1.85496 -7.82144,-0.0792 -20.45549,-4.67263 -25.15179,-9.14447 -6.48334,-6.17349 -10.018242,-16.73752 -9.324028,-27.86484 0.533208,-8.54666 1.123508,-10.13682 4.629808,-12.47193 1.31246,-0.87406 4.02743,-2.68957 6.03324,-4.03446 2.00581,-1.3449 6.17665,-3.19783 9.26853,-4.11762 5.30958,-1.57953 7.04926,-2.01465 17.34267,-4.33762 6.13132,-1.38369 23.99423,-1.03914 29.58095,0.57056 5.67788,1.63597 15.64237,7.88556 17.78374,11.1537 2.28578,3.48855 1.51863,6.6098 -1.71568,6.98052 l -2.64178,0.30279 2.40736,2.23107 c 2.81654,2.61028 3.1616,6.56086 0.76641,8.77441 -2.28249,2.10941 -4.5472,6.43536 -5.78013,11.04091 -1.54356,5.76592 -6.5409,12.57791 -10.86378,14.80867 -5.21768,2.6925 -14.82807,6.65099 -15.57028,6.41335 -0.33876,-0.10846 -1.3645,0.62997 -2.27943,1.64095 -2.05271,2.26823 -3.72474,2.24901 -7.92201,-0.091 z m 30.46014,83.56011 c 6.58549,-3.1286 10.9026,-7.9663 16.41259,-18.3917 3.85008,-7.2848 4.60122,-14.2759 2.27219,-21.14802 -0.94181,-2.77895 -1.60763,-5.75513 -1.47958,-6.61374 0.13019,-0.87299 -0.92383,-2.25505 -2.39124,-3.13542 -3.93198,-2.35901 -7.15342,-7.56204 -10.93939,-17.66853 -3.37618,-9.01256 -4.14085,-13.93621 -2.55363,-16.4425 1.31326,-2.0737 9.38482,-2.32634 20.38023,-0.63789 5.59908,0.85978 11.54637,1.77122 13.21622,2.02541 4.39897,0.66964 5.2644,2.93513 4.06768,10.64818 -1.41706,9.13327 -5.68268,18.16742 -9.85061,20.86269 -2.23677,1.44644 -3.14505,2.62238 -2.75352,3.56495 0.32135,0.77359 0.79607,2.46143 1.05496,3.75074 0.25887,1.28932 1.01922,2.978 1.68967,3.75263 0.67043,0.77462 2.46459,4.18464 3.98701,7.5778 3.43385,7.6534 7.4696,12.3367 14.62033,16.9661 9.02921,5.8455 13.41485,5.0704 20.33196,-3.5938 1.29243,-1.6189 4.60574,-7.64 4.60574,-8.3698 0,-0.1415 -2.33649,-0.5493 -5.19221,-0.9061 -2.85571,-0.3568 -6.12222,-1.4018 -7.25891,-2.3222 -1.96993,-1.5952 -1.99061,-1.7576 -0.4416,-3.46924 1.91919,-2.12067 6.30317,-2.08033 17.42266,0.16034 6.95743,1.4019 34.73505,4.2609 41.41664,4.2628 3.14233,8e-4 3.46997,-0.3356 7.70424,-7.9115 2.43229,-4.35185 4.67456,-8.91734 4.98282,-10.14555 0.63612,-2.53449 2.72693,-2.44732 -18.31317,-0.76349 -13.6385,1.09147 -34.73798,2.17718 -45.47774,2.34011 -4.12581,0.0626 -8.02175,0.44262 -8.65764,0.8445 -0.63588,0.40187 -2.59847,0.4601 -4.36131,0.12939 -2.37769,-0.44606 -3.31357,-1.1684 -3.62507,-2.79792 -0.90374,-4.72754 -0.36137,-4.81433 34.92889,-5.5895 12.63531,-0.27755 27.40385,-0.75056 32.81898,-1.05113 5.41513,-0.30058 11.32255,-0.61131 13.1276,-0.6905 l 3.28189,-0.144 0.6361,-8.90801 c 0.34986,-4.89941 0.32631,-9.22693 -0.0523,-9.61673 -2.07113,-2.13213 -54.54629,10.198 -68.99738,16.21238 -9.57077,3.98324 -13.20912,4.37508 -14.94101,1.60909 -1.32379,-2.11419 -0.0125,-4.28634 3.9107,-6.47806 5.03675,-2.81383 48.61829,-13.44663 59.16318,-14.43434 1.87132,-0.17528 7.30551,-1.06439 12.07599,-1.97581 l 8.67359,-1.65713 0,-5.50074 c 0,-12.78103 -4.12115,-37.79564 -8.68307,-52.70464 -1.26244,-4.12582 -2.82596,-9.74825 -3.47451,-12.4943 -0.64855,-2.74603 -2.81996,-8.35039 -4.82534,-12.45412 -2.00539,-4.10372 -3.64616,-7.72604 -3.64616,-8.04958 0,-0.32354 -1.61367,-2.73639 -3.58593,-5.36189 -1.97227,-2.6255 -4.67881,-7.09441 -6.01455,-9.93091 -1.33574,-2.8365 -3.51918,-6.42314 -4.85209,-7.97032 -2.37264,-2.75404 -3.34653,-7.97033 -1.48808,-7.97033 1.8733,0 0.84223,-4.38438 -2.82113,-11.99611 -2.05846,-4.27711 -3.74267,-8.30681 -3.74267,-8.9549 0,-0.6481 -0.39627,-1.57922 -0.88061,-2.06916 -0.48435,-0.48994 -2.18024,-4.47745 -3.76866,-8.86113 -1.58841,-4.38368 -3.26915,-8.81424 -3.73497,-9.84569 -0.46583,-1.03146 -1.57526,-3.89345 -2.46539,-6.36 -1.87661,-5.19999 -3.12928,-6.36272 -3.85697,-3.58005 -0.2833,1.08335 -0.78307,1.96972 -1.1106,1.96972 -0.32753,0 -1.58639,2.0043 -2.79745,4.45401 -1.21108,2.4497 -2.57005,5.08694 -3.01995,5.86053 -0.4499,0.77359 -1.50454,2.88338 -2.34365,4.68843 -0.83912,1.80504 -2.2743,4.75875 -3.18929,6.56379 -1.41306,2.78756 -4.11715,10.01547 -8.59473,22.97329 -0.53463,1.54718 -1.98533,6.38004 -3.22376,10.73969 -1.23843,4.35964 -2.82986,8.50479 -3.53649,9.21142 -1.11262,1.11261 -2.99824,1.75617 -9.98785,3.40881 -2.41678,0.57143 -12.28609,1.46594 -21.56677,1.95471 -13.5206,0.71208 -19.70361,1.43382 -24.78099,2.89272 -5.68656,1.63394 -13.6641,5.18127 -13.6641,6.07596 0,1.04422 -3.94973,1.80336 -6.30593,1.212 -2.20807,-0.55419 -5.53824,-6.1172 -4.58512,-7.65938 0.29157,-0.47177 -1.56923,-7.25002 -4.13512,-15.06279 -2.56587,-7.81276 -4.66522,-14.7611 -4.66522,-15.44076 0,-3.20049 -11.15257,-22.53335 -16.39027,-28.41238 -0.5263,-0.59074 -2.01181,-2.43384 -3.30112,-4.09578 -5.5352,-7.13489 -6.81971,-8.42658 -8.37979,-8.42658 -1.65678,0 -9.737142,7.94214 -14.310072,14.06528 -3.47089,4.64752 -7.71553,13.4304 -10.1963,21.09792 -1.16801,3.61008 -3.27207,9.94684 -4.67567,14.08168 -3.92966,11.5763 -4.94486,19.97858 -4.32354,35.78359 0.70887,18.03198 1.41416,26.46898 2.45514,29.36913 0.46277,1.28932 1.04936,4.24303 1.30351,6.5638 0.65571,5.98763 6.79525,38.50165 8.85302,46.88427 0.9495,3.86795 3.17749,9.95882 4.95108,13.53528 l 3.2247,6.50264 28.599402,0.15744 c 15.72967,0.0867 29.74903,0.47772 31.15413,0.86916 2.77415,0.77285 7.29096,4.52124 7.29096,6.05059 0,2.33908 -3.88293,3.06086 -10.1693,1.89034 -5.85196,-1.08963 -47.37062,-1.97068 -50.951252,-1.08121 -1.4411,0.35798 -1.41286,0.70782 0.32638,4.04463 1.49805,2.87407 2.33406,3.56226 3.921752,3.22833 1.10981,-0.23341 7.92525,-0.90752 15.14543,-1.49801 23.53424,-1.9247 47.78931,1.17824 54.52953,6.97594 3.3068,2.84439 2.47705,5.27144 -1.80219,5.27144 -1.71809,0 -3.55092,-0.42713 -4.07297,-0.94918 -2.02434,-2.02434 -16.22854,-3.91218 -31.77604,-4.22327 -14.54718,-0.29107 -29.94598,0.58036 -31.12712,1.76151 -0.44267,0.44266 3.29136,8.00026 4.46498,9.03706 0.2919,0.2578 1.86132,2.3676 3.48761,4.6884 1.62628,2.3208 4.34116,5.5627 6.03307,7.2043 l 3.07619,2.9847 6.56379,-1.3806 c 3.61009,-0.7595 9.72849,-1.9923 13.59644,-2.7399 3.86795,-0.7476 9.14243,-1.9596 11.72107,-2.6936 9.34018,-2.6583 12.2837,-3.3175 17.59747,-3.9405 4.47528,-0.5247 5.72814,-0.3439 7.26706,1.0488 3.79209,3.4318 1.57213,4.9744 -9.39273,6.5271 -2.32077,0.3286 -5.0635,0.971 -6.09495,1.4276 -1.03146,0.4565 -4.84008,1.2988 -8.46361,1.8715 -9.01879,1.4256 -9.41885,1.7864 -6.30402,5.686 9.85043,12.3321 17.12294,15.4764 26.01985,11.2498 z m -22.89283,1.5886 c -2.13736,-2.1918 -5.4561,-6.4278 -7.37497,-9.4132 l -3.48887,-5.4281 -5.04677,0.528 c -8.07008,0.8442 -8.43759,1.5011 -3.2366,5.7844 5.75732,4.7415 10.05904,7.3306 16.90169,10.1725 2.99583,1.2442 5.60101,2.2801 5.78929,2.3019 0.18829,0.022 -1.40641,-1.7536 -3.54377,-3.9455 z m 68.67953,9.0646 c 15.56898,-2.3502 20.41404,-3.9641 39.1706,-13.0481 5.35331,-2.5926 16.24892,-8.8685 19.12577,-11.0162 0.51573,-0.3851 3.66954,-2.7059 7.00846,-5.1573 l 6.07078,-4.4572 -6.07078,-0.586 c -3.33892,-0.3221 -11.21312,-0.885 -17.4982,-1.2507 l -11.42742,-0.665 -2.04766,4.0639 c -2.21628,4.3985 -7.13805,10.9031 -11.49811,15.1957 -2.62984,2.5893 -3.01188,2.6767 -9.93875,2.2757 -5.53735,-0.3205 -8.4629,-1.0519 -12.64681,-3.1615 -5.50435,-2.7754 -12.6343,-8.91 -16.17181,-13.914 l -1.93012,-2.7303 -1.60352,4.1368 c -4.4947,11.5955 -18.04719,26.8658 -25.39144,28.6099 l -2.81306,0.6681 2.81306,0.8567 c 3.68339,1.1217 20.73998,2.2082 29.06824,1.8517 3.61009,-0.1545 10.71143,-0.9071 15.78077,-1.6722 z m -40.16059,8.0008 c -12.58675,-1.4008 -28.99888,-6.3324 -41.25815,-12.3977 -6.41545,-3.174 -9.55335,-5.4374 -16.33226,-11.7802 -3.18691,-2.9818 -3.58251,-3.0993 -8.50799,-2.5269 -2.84113,0.3303 -7.06449,1.1597 -9.38526,1.8433 -2.320772,0.6835 -9.916022,2.8074 -16.878342,4.7197 -16.60123,4.5596 -24.94768,8.079 -34.92378,14.7259 -4.50987,3.0048 -8.81004,5.4633 -9.55594,5.4633 -2.5523,0 -2.39714,-1.685 0.4343,-4.7161 1.55742,-1.6672 3.13815,-3.5059 3.51274,-4.086 2.32776,-3.6049 15.27179,-10.3156 25.99856,-13.4789 11.9817,-3.5333 32.136012,-9.1567 36.344172,-10.1407 1.42312,-0.3328 2.75915,-0.8828 2.96895,-1.2223 0.20981,-0.3395 -1.72006,-3.1409 -4.28861,-6.2255 -2.56854,-3.0845 -6.378932,-8.4565 -8.467512,-11.93761 -2.08859,-3.48116 -4.41602,-6.32938 -5.17206,-6.32938 -3.47831,0 -24.78467,3.0495 -29.82411,4.26861 -3.09436,0.74857 -7.52492,1.72701 -9.84569,2.1743 -9.36495,1.80488 -26.85357,5.86718 -28.83383,6.69758 -1.16038,0.4864 -2.10979,1.5265 -2.10979,2.3112 0,1.8906 -3.66627,1.8503 -6.40851,-0.07 -1.33939,-0.9382 -2.02992,-2.2509 -1.84959,-3.5164 0.33204,-2.3298 7.70913,-5.2366 19.51033,-7.68774 3.86795,-0.80339 10.19732,-2.24645 14.06527,-3.2068 3.86796,-0.96035 9.35342,-2.02174 12.18991,-2.35865 2.8365,-0.33691 7.37667,-1.23024 10.08927,-1.98517 2.71259,-0.75494 6.7212,-1.58518 8.90801,-1.84498 4.5617,-0.54197 11.94634,-2.34143 11.94634,-2.91107 0,-0.21138 -0.8525,-2.05536 -1.89443,-4.09772 l -1.89443,-3.71338 -11.23676,0 c -22.23725,0 -63.73995,3.1069 -63.73995,4.77159 0,0.40911 0.42196,1.00462 0.93769,1.32336 2.42782,1.50048 0.68852,2.56002 -3.4387492,2.09483 -6.53766,-0.73689 -10.67256,-6.8876 -6.47795,-9.63602 2.74413,-1.79802 25.0243192,-3.89419 54.9255892,-5.16753 12.63531,-0.53806 23.5155,-1.16132 24.17819,-1.38501 0.96292,-0.32502 0.93559,-0.92795 -0.13609,-3.00217 -3.99224,-7.72705 -6.27272,-16.90078 -11.36764,-45.72901 -1.82293,-10.31454 -3.95321,-22.12938 -4.73396,-26.25519 -4.36327,-23.05737 -4.20184,-51.37327 0.3635,-63.7626 0.57013,-1.54718 2.26329,-6.82166 3.76261,-11.72107 5.36121,-17.51924 10.53865,-27.67688 19.35684,-37.97625 5.61573,-6.559 12.247882,-12.758 14.163932,-13.2389 2.95588,-0.74188 5.71171,1.05706 7.75992,5.06551 0.9794,1.91673 3.11503,4.96182 4.74584,6.76686 1.63081,1.80504 3.6666,4.3368 4.52401,5.62611 0.85739,1.28932 3.05021,4.45401 4.87292,7.03264 4.22629,5.97903 5.31607,7.76317 6.94625,11.37217 0.72867,1.61316 1.73506,3.18654 2.23642,3.4964 0.50137,0.30987 1.84631,3.2096 2.98874,6.44385 1.88318,5.33129 3.0711,8.34541 7.30663,18.53921 0.75,1.80504 2.37593,5.36904 3.61318,7.92001 1.23726,2.55096 2.24956,5.20145 2.24956,5.88996 0,2.02372 2.15282,2.28043 6.43979,0.7679 6.44064,-2.27239 18.4901,-4.12753 30.59878,-4.711 19.24398,-0.92728 23.06734,-1.81912 27.25373,-6.35727 3.20838,-3.47794 4.10785,-5.49052 10.74512,-24.04236 4.25432,-11.89127 8.33548,-21.19463 13.41076,-30.57109 0.83746,-1.54718 3.03647,-5.97775 4.8867,-9.8457 3.29686,-6.89219 5.29523,-9.37685 7.54163,-9.37685 2.27021,0 5.42779,3.52689 5.61806,6.27515 0.10632,1.53567 0.80351,4.02217 1.54931,5.52555 0.74579,1.50339 2.32384,5.89811 3.50678,9.76606 3.14103,10.27051 8.82504,24.34344 14.58105,36.10089 2.77729,5.67299 5.31618,11.58041 5.64198,13.12759 1.05058,4.98902 2.55864,8.27378 7.73412,16.84595 8.78578,14.55193 11.16541,20.19952 15.25574,36.20675 6.9091,27.03822 9.85265,42.29233 10.73123,55.61142 l 0.6733,10.20717 11.38776,-0.83032 c 18.64589,-1.35952 35.22725,-0.97302 38.81504,0.90476 3.50029,1.83199 3.91017,3.8322 1.0941,5.33932 -1.53555,0.8218 -2.30162,0.73025 -3.58151,-0.42803 -2.35538,-2.13159 -10.92726,-3.5415 -17.4384,-2.86829 -10.60698,1.09669 -28.13052,3.32762 -29.30267,3.73051 -0.84304,0.28978 -1.17211,3.32351 -1.17211,10.80599 l 0,10.40311 6.32938,-0.22903 c 8.8413,-0.31993 28.52035,1.99193 28.07985,3.29876 -0.23249,0.68974 -5.60282,1.06963 -16.20636,1.1464 -8.72226,0.0631 -16.74398,0.16863 -17.82604,0.23442 -1.36457,0.083 -2.50006,1.34063 -3.70595,4.10476 -0.95621,2.19184 -3.13009,6.20864 -4.83084,8.92622 -4.64747,7.42602 -4.33975,8.29592 3.23712,9.15152 3.48115,0.3931 7.17329,0.8129 8.20474,0.9329 2.15796,0.2511 16.02741,2.5904 27.66172,4.6655 4.38368,0.782 10.02113,2.075 12.52767,2.8737 4.54849,1.4492 16.89961,3.1379 21.10616,2.8859 2.33921,-0.1402 4.80923,2.5306 3.52088,3.8071 -1.45195,1.4385 -14.27454,0.3916 -25.43364,-2.0766 -6.18873,-1.3688 -13.36202,-2.8773 -15.94065,-3.3521 -2.57864,-0.4749 -7.0092,-1.29 -9.8457,-1.8115 -6.31743,-1.1613 -9.92374,-1.5504 -22.33354,-2.4095 l -9.6748,-0.6699 -5.32817,5.1221 c -2.93049,2.8171 -7.22698,6.3228 -9.54776,7.7904 -2.32077,1.4675 -5.34221,3.4309 -6.71432,4.363 -5.83694,3.9651 -25.23708,13.9526 -27.10228,13.9526 -0.58148,0 -2.17724,0.6075 -3.54613,1.3502 -13.0659,7.0884 -47.95869,11.4743 -70.93992,8.9169 z"
       inkscape:connector-curvature="0" />
    <flowRoot
       xml:space="preserve"
       id="flowRoot4223"
       style="font-size:90px;font-style:normal;font-variant:normal;font-weight:normal;font-stretch:normal;line-height:125%;letter-spacing:0px;word-spacing:0px;fill:#000000;fill-opacity:1;stroke:none;font-family:'瀬戸フォントミニ';-inkscape-font-specification:'瀬戸フォントミニ'"
       transform="translate(-0.06322763,46.783598)"><flowRegion
         id="flowRegion4225"><rect
           id="rect4227"
           width="483.6098"
           height="262.23911"
           x="153.25662"
           y="355.32834" /></flowRegion><flowPara
         id="flowPara4229" /></flowRoot>  </g>
</svg>
