<?xml version="1.0" encoding="UTF-8" standalone="no"?>
<!-- Created with Inkscape (http://www.inkscape.org/) -->

<svg
   xmlns:dc="http://purl.org/dc/elements/1.1/"
   xmlns:cc="http://creativecommons.org/ns#"
   xmlns:rdf="http://www.w3.org/1999/02/22-rdf-syntax-ns#"
   xmlns:svg="http://www.w3.org/2000/svg"
   xmlns="http://www.w3.org/2000/svg"
   version="1.1"
   width="256"
   height="50"
   id="svg3218">
  <defs
     id="defs3220" />
  <metadata
     id="metadata3223">
    <rdf:RDF>
      <cc:Work
         rdf:about="">
        <dc:format>image/svg+xml</dc:format>
        <dc:type
           rdf:resource="http://purl.org/dc/dcmitype/StillImage" />
        <dc:title></dc:title>
      </cc:Work>
    </rdf:RDF>
  </metadata>
  <g
     transform="translate(0,-1002.3622)"
     id="layer1">
    <g
       transform="translate(60.928,586.58568)"
       id="flowRoot3033"
       style="font-size:72px;font-style:normal;font-variant:normal;font-weight:normal;font-stretch:normal;text-align:start;line-height:125%;letter-spacing:0px;word-spacing:0px;writing-mode:lr-tb;text-anchor:start;fill:#000000;fill-opacity:1;stroke:none;font-family:Courier 10 Pitch;-inkscape-font-specification:Courier 10 Pitch">
      <path
         d="m -26.512,445.3285 0,16.056 c 0,2.304 1.008002,3.528 2.952,3.528 l 4.248,0 c 1.655998,0 2.52,-0.864 2.52,-2.52 0,-2.016 -1.008003,-2.448 -3.672,-2.448 -0.216,0 -0.432,0 -0.648,0 l 0,-15.912 c 0,-8.20799 -2.160006,-12.528 -8.64,-12.528 -3.383997,0 -5.904002,1.44 -7.848,4.32 -1.007999,-2.88 -3.168003,-4.32 -6.408,-4.32 -2.735997,0 -4.896002,0.936 -6.768,3.024 -0.144,-1.728 -0.504002,-2.088 -2.016,-2.088 l -5.4,0 c -1.871998,0 -2.736,0.792 -2.736,2.448 0,1.8 1.008002,2.52 3.24,2.52 0.503999,0 1.080001,0 1.584,0 l 0,22.536 c -0.288,0 -0.504,0 -0.72,0 -2.879997,0 -4.104,0.432 -4.104,2.448 0,1.656 0.864002,2.52 2.736,2.52 l 9.36,0 c 2.087998,0 2.88,-0.504 2.88,-2.52 0,-1.944 -0.936002,-2.52 -3.384,-2.52 -0.432,0 -0.936001,0.072 -1.512,0.072 l 0,-19.368 c 1.295999,-2.448 3.024002,-3.672 5.184,-3.672 2.663997,0 4.608,2.088 4.608,5.688 0,0.432 0,1.368 0,2.736 l 0,14.832 c 0,0.36 0,0.648 0,0.936 0,2.736 0.144002,3.816 2.448,3.816 l 4.464,0 c 1.655998,0 2.448,-0.864 2.448,-2.52 0,-2.016 -1.008003,-2.448 -3.672,-2.448 -0.216,0 -0.432,0 -0.648,0 l 0,-14.616 c 0,-5.61599 2.448003,-8.424 5.688,-8.424 3.527996,0 3.816,3.09601 3.816,8.424"
         id="path3170" />
      <path
         d="m 22.3445,448.7125 c 0,-9.71999 -7.200011,-17.064 -18.36,-17.064 -11.1599888,0 -18.432,7.27201 -18.432,17.064 0,9.79199 7.2720112,17.064 18.432,17.064 11.159989,0 18.36,-7.27201 18.36,-17.064 m -18.36,12.168 c -7.2719927,0 -12.312,-5.18401 -12.312,-12.168 0,-6.98399 5.0400073,-12.24 12.312,-12.24 7.271993,0 12.312,5.25601 12.312,12.24 0,7.05599 -5.040007,12.168 -12.312,12.168"
         id="path3172" />
      <path
         d="m 34.193,459.9445 c -0.288,0 -0.504,0 -0.72,0 -2.879997,0 -4.104,0.432 -4.104,2.448 0,1.656 0.936002,2.52 2.952,2.52 0.935999,0 1.584,0 1.872,0 l 6.408,0 c 2.663997,0 3.744,-0.144 3.744,-2.52 0,-1.944 -0.936002,-2.52 -3.384,-2.52 -0.432,0 -0.936001,0.072 -1.512,0.072 l 0,-14.616 c 0,-5.25599 4.896004,-8.424 9.144,-8.424 4.607995,0 7.2,2.80801 7.2,8.424 l 0,14.616 c -0.432,0 -0.792,0 -1.152,0 -2.519997,0 -3.528,0.504 -3.528,2.448 0,2.304 1.008003,2.52 3.528,2.52 l 7.776,0 c 2.519997,0 3.744,-0.504 3.744,-2.52 0,-1.8 -1.080002,-2.448 -3.312,-2.448 -0.503999,0 -1.080001,0 -1.584,0 l 0,-15.912 c 0,-8.13599 -4.752007,-12.528 -11.448,-12.528 -3.671996,0 -6.912003,1.584 -10.296,4.752 l 0,-2.376 c 0,-0.864 -0.648001,-1.44 -2.016,-1.44 l -3.312,0 c -3.239997,0 -4.824,0 -4.824,2.448 0,1.8 1.008002,2.52 3.24,2.52 0.503999,0 1.080001,0 1.584,0 l 0,22.536"
         id="path3174" />
      <path
         d="m 78.1535,449.1445 c 0,-6.98399 4.464007,-11.592 11.088,-11.592 6.551993,0 11.088,4.75201 11.088,11.232 0,6.47999 -4.680006,11.376 -11.16,11.376 -6.263994,0 -11.016,-4.39201 -11.016,-11.016 m 23.04,15.768 6.696,0 c 1.512,0 2.52,-0.936 2.52,-2.52 0,-1.8 -1.008,-2.448 -3.24,-2.448 -0.504,0 -1.08,0 -1.584,0 l 0,-39.6 c 0,-1.008 -0.648,-1.44 -2.016,-1.44 l -7.2,0 c -1.871998,0 -2.808,0.864 -2.808,2.52 0,2.304 1.512003,2.52 4.824,2.52 l 1.872,0 0,13.464 c -2.735997,-3.384 -6.624005,-5.04 -11.448,-5.04 -9.50399,0 -16.704,7.34401 -16.704,16.632 0,9.86399 6.768009,16.776 15.624,16.776 4.967995,0 9.288003,-2.016 12.096,-5.544 l 0,2.88 c 0,1.224 0.288,1.8 1.368,1.8"
         id="path3176" />
      <path
         d="m 141.914,460.4485 0.36,2.16 c 0.288,1.512 1.152,2.304 2.448,2.304 l 5.544,0 c 1.872,0 2.808,-0.864 2.808,-2.52 0,-2.088 -1.224,-2.448 -4.176,-2.448 l -1.8,0 0,-15.912 c 0,-8.49599 -4.17601,-12.456 -13.176,-12.456 -7.91999,0 -13.104,2.52 -13.104,4.968 0,1.8 1.08,2.952 2.376,2.952 2.736,0 5.616,-2.952 10.584,-2.952 5.39999,0 7.92,2.52001 7.92,7.92 0,0.072 0,0.144 0,0.216 -2.88,-0.72 -5.616,-1.08 -8.352,-1.08 -10.43999,0 -16.272,4.39201 -16.272,11.664 0,6.19199 4.60801,10.512 11.664,10.512 4.824,0 9.36,-1.872 13.176,-5.328 m -0.216,-11.088 0,3.816 c 0,3.168 -5.76001,7.2 -12.096,7.2 -4.104,0 -6.912,-2.376 -6.912,-5.472 0,-3.96 4.10401,-6.768 11.592,-6.768 2.592,0 5.04,0.432 7.416,1.224"
         id="path3178" />
      <path
         d="m 180.4745,459.9445 0,-26.064 c 0,-0.864 -0.648,-1.44 -2.016,-1.44 l -10.296,0 c -1.872,0 -2.808,0.792 -2.808,2.448 0,1.656 1.008,2.52 2.952,2.52 l 6.84,0 0,22.536 -10.728,0 c -1.944,0 -2.952,0.792 -2.952,2.448 0,1.656 0.936,2.52 2.808,2.52 l 27.288,0 c 2.088,0 2.88,-0.504 2.88,-2.52 0,-1.728 -0.864,-2.448 -2.664,-2.448 l -11.304,0 m -6.552,-37.656 c 0,2.88 0.72,3.456 3.672,3.456 3.384,0 3.6,-0.792 3.6,-4.464 0,-3.672 -0.36,-4.752 -3.6,-4.752 -3.24,0 -3.672,1.08 -3.672,5.76"
         id="path3180" />
    </g>
  </g>
</svg>
